<?xml version="1.0" standalone="no"?>
<svg xmlns:xlink="http://www.w3.org/1999/xlink" id="wave" style="transform:rotate(0deg); transition: 0.3s" viewBox="0 0 1440 490" version="1.1" xmlns="http://www.w3.org/2000/svg"><defs><linearGradient id="sw-gradient-0" x1="0" x2="0" y1="1" y2="0"><stop stop-color="rgba(243, 106, 62, 1)" offset="0%"/><stop stop-color="rgba(255, 179, 11, 1)" offset="100%"/></linearGradient></defs><path style="transform:translate(0, 0px); opacity:1" fill="url(#sw-gradient-0)" d="M0,49L48,106.2C96,163,192,278,288,334.8C384,392,480,392,576,400.2C672,408,768,425,864,375.7C960,327,1056,212,1152,179.7C1248,147,1344,196,1440,179.7C1536,163,1632,82,1728,65.3C1824,49,1920,98,2016,155.2C2112,212,2208,278,2304,285.8C2400,294,2496,245,2592,236.8C2688,229,2784,261,2880,277.7C2976,294,3072,294,3168,245C3264,196,3360,98,3456,98C3552,98,3648,196,3744,212.3C3840,229,3936,163,4032,130.7C4128,98,4224,98,4320,114.3C4416,131,4512,163,4608,155.2C4704,147,4800,98,4896,122.5C4992,147,5088,245,5184,236.8C5280,229,5376,114,5472,89.8C5568,65,5664,131,5760,171.5C5856,212,5952,229,6048,196C6144,163,6240,82,6336,49C6432,16,6528,33,6624,89.8C6720,147,6816,245,6864,294L6912,343L6912,490L6864,490C6816,490,6720,490,6624,490C6528,490,6432,490,6336,490C6240,490,6144,490,6048,490C5952,490,5856,490,5760,490C5664,490,5568,490,5472,490C5376,490,5280,490,5184,490C5088,490,4992,490,4896,490C4800,490,4704,490,4608,490C4512,490,4416,490,4320,490C4224,490,4128,490,4032,490C3936,490,3840,490,3744,490C3648,490,3552,490,3456,490C3360,490,3264,490,3168,490C3072,490,2976,490,2880,490C2784,490,2688,490,2592,490C2496,490,2400,490,2304,490C2208,490,2112,490,2016,490C1920,490,1824,490,1728,490C1632,490,1536,490,1440,490C1344,490,1248,490,1152,490C1056,490,960,490,864,490C768,490,672,490,576,490C480,490,384,490,288,490C192,490,96,490,48,490L0,490Z"/><defs><linearGradient id="sw-gradient-1" x1="0" x2="0" y1="1" y2="0"><stop stop-color="rgba(243, 106, 62, 1)" offset="0%"/><stop stop-color="rgba(255, 179, 11, 1)" offset="100%"/></linearGradient></defs><path style="transform:translate(0, 50px); opacity:0.9" fill="url(#sw-gradient-1)" d="M0,392L48,351.2C96,310,192,229,288,163.3C384,98,480,49,576,89.8C672,131,768,261,864,285.8C960,310,1056,229,1152,204.2C1248,180,1344,212,1440,187.8C1536,163,1632,82,1728,65.3C1824,49,1920,98,2016,147C2112,196,2208,245,2304,277.7C2400,310,2496,327,2592,277.7C2688,229,2784,114,2880,106.2C2976,98,3072,196,3168,228.7C3264,261,3360,229,3456,204.2C3552,180,3648,163,3744,204.2C3840,245,3936,343,4032,351.2C4128,359,4224,278,4320,228.7C4416,180,4512,163,4608,204.2C4704,245,4800,343,4896,367.5C4992,392,5088,343,5184,326.7C5280,310,5376,327,5472,310.3C5568,294,5664,245,5760,253.2C5856,261,5952,327,6048,302.2C6144,278,6240,163,6336,147C6432,131,6528,212,6624,212.3C6720,212,6816,131,6864,89.8L6912,49L6912,490L6864,490C6816,490,6720,490,6624,490C6528,490,6432,490,6336,490C6240,490,6144,490,6048,490C5952,490,5856,490,5760,490C5664,490,5568,490,5472,490C5376,490,5280,490,5184,490C5088,490,4992,490,4896,490C4800,490,4704,490,4608,490C4512,490,4416,490,4320,490C4224,490,4128,490,4032,490C3936,490,3840,490,3744,490C3648,490,3552,490,3456,490C3360,490,3264,490,3168,490C3072,490,2976,490,2880,490C2784,490,2688,490,2592,490C2496,490,2400,490,2304,490C2208,490,2112,490,2016,490C1920,490,1824,490,1728,490C1632,490,1536,490,1440,490C1344,490,1248,490,1152,490C1056,490,960,490,864,490C768,490,672,490,576,490C480,490,384,490,288,490C192,490,96,490,48,490L0,490Z"/></svg>