<?xml version="1.0" encoding="iso-8859-1"?>
<!-- Generator: Adobe Illustrator 19.0.0, SVG Export Plug-In . SVG Version: 6.00 Build 0)  -->
<svg version="1.1" id="Layer_1" xmlns="http://www.w3.org/2000/svg" xmlns:xlink="http://www.w3.org/1999/xlink" x="0px" y="0px"
	 viewBox="0 0 512 512" style="enable-background:new 0 0 512 512;" xml:space="preserve">
<rect x="160" y="357.424" style="fill:#333333;" width="192" height="108.336"/>
<polygon points="160,376.16 274.24,376.16 160,434.064 "/>
<path style="fill:#999999;" d="M377.456,487.84H134.544c-9.424,0-17.12-7.712-17.12-17.12l0,0c0-9.424,7.712-17.12,17.12-17.12
	H377.44c9.424,0,17.12,7.712,17.12,17.12l0,0C394.576,480.144,386.864,487.84,377.456,487.84z"/>
<path style="fill:#D6D6D6;" d="M480,376.16H32c-17.6,0-32-14.4-32-32v-288c0-17.6,14.4-32,32-32h448c17.6,0,32,14.4,32,32v288
	C512,361.76,497.6,376.16,480,376.16z"/>
<rect x="21.968" y="46.096" style="fill:#333333;" width="468.16" height="308.128"/>
<g>
	<path style="fill:#0BA4E0;" d="M119.664,196.288l91.824-44.56v17.424l-72.832,33.904v0.384l72.832,34.096v17.248l-91.824-44.56
		C119.664,210.224,119.664,196.288,119.664,196.288z"/>
	<path style="fill:#0BA4E0;" d="M224.928,262.528l47.28-140.448h16.656l-47.28,140.448H224.928z"/>
	<path style="fill:#0BA4E0;" d="M392.336,210.624L300.512,254.8v-17.248l74.016-34.096v-0.384l-74.016-34.096v-17.248l91.824,44.176
		V210.624z"/>
</g>
<g>
</g>
<g>
</g>
<g>
</g>
<g>
</g>
<g>
</g>
<g>
</g>
<g>
</g>
<g>
</g>
<g>
</g>
<g>
</g>
<g>
</g>
<g>
</g>
<g>
</g>
<g>
</g>
<g>
</g>
</svg>
