<?xml version="1.0" encoding="UTF-8"?>
<svg xmlns="http://www.w3.org/2000/svg" xmlns:xlink="http://www.w3.org/1999/xlink" width="480pt" height="480pt" viewBox="0 0 480 480" version="1.1">
<g id="surface8527966">
<path style=" stroke:none;fill-rule:nonzero;fill:rgb(18.039216%,80%,44.313725%);fill-opacity:1;" d="M 10 50 L 70 90 L 70 290 L 10 250 Z M 10 50 "/>
<path style=" stroke:none;fill-rule:nonzero;fill:rgb(20%,20%,20%);fill-opacity:1;" d="M 470 200 L 410 240 L 410 370 L 470 330 Z M 470 200 "/>
<path style=" stroke:none;fill-rule:nonzero;fill:rgb(20%,20%,20%);fill-opacity:1;" d="M 470 60 L 410 100 L 410 170 L 470 130 Z M 470 60 "/>
<path style=" stroke:none;fill-rule:nonzero;fill:rgb(20%,20%,20%);fill-opacity:1;" d="M 350 50 L 290 90 L 290 290 L 350 250 Z M 350 50 "/>
<path style=" stroke:none;fill-rule:nonzero;fill:rgb(18.039216%,80%,44.313725%);fill-opacity:1;" d="M 10 120 L 180 230 L 180 160 L 10 50 Z M 10 120 "/>
<path style=" stroke:none;fill-rule:nonzero;fill:rgb(20%,20%,20%);fill-opacity:1;" d="M 350 120 L 180 230 L 180 160 L 350 50 Z M 350 120 "/>
<path style=" stroke:none;fill-rule:nonzero;fill:rgb(20%,20%,20%);fill-opacity:1;" d="M 350 260 L 180 370 L 180 300 L 350 190 Z M 350 260 "/>
<path style=" stroke:none;fill-rule:nonzero;fill:rgb(20%,20%,20%);fill-opacity:1;" d="M 470 340 L 300 450 L 300 380 L 470 270 Z M 470 340 "/>
<path style=" stroke:none;fill-rule:nonzero;fill:rgb(18.039216%,80%,44.313725%);fill-opacity:1;" d="M 300 377.648438 L 180 300 L 180 370 L 300 447.648438 Z M 300 377.648438 "/>
</g>
</svg>
