<?xml version="1.0"?>
<svg xmlns="http://www.w3.org/2000/svg" xmlns:xlink="http://www.w3.org/1999/xlink" version="1.1" id="Layer_1" x="0px" y="0px" viewBox="0 0 512 512" style="enable-background:new 0 0 512 512;" xml:space="preserve" width="512px" height="512px" class=""><g><rect x="160" y="357.424" style="fill:#545353" width="192" height="108.336" data-original="#333333" class="active-path" data-old_color="#333333"/><polygon points="160,376.16 274.24,376.16 160,434.064 " data-original="#000000" class="" style="fill:#999999" data-old_color="#000000"/><path style="fill:#2ECC71" d="M377.456,487.84H134.544c-9.424,0-17.12-7.712-17.12-17.12l0,0c0-9.424,7.712-17.12,17.12-17.12  H377.44c9.424,0,17.12,7.712,17.12,17.12l0,0C394.576,480.144,386.864,487.84,377.456,487.84z" data-original="#999999" class="" data-old_color="#999999"/><path style="fill:#2ECC71" d="M480,376.16H32c-17.6,0-32-14.4-32-32v-288c0-17.6,14.4-32,32-32h448c17.6,0,32,14.4,32,32v288  C512,361.76,497.6,376.16,480,376.16z" data-original="#D6D6D6" class="" data-old_color="#D6D6D6"/><rect x="21.968" y="46.096" style="fill:#545353" width="468.16" height="308.128" data-original="#333333" class="active-path" data-old_color="#333333"/><g>
	<path style="fill:#2ECC71" d="M119.664,196.288l91.824-44.56v17.424l-72.832,33.904v0.384l72.832,34.096v17.248l-91.824-44.56   C119.664,210.224,119.664,196.288,119.664,196.288z" data-original="#0BA4E0" class="" data-old_color="#0BA4E0"/>
	<path style="fill:#2ECC71" d="M224.928,262.528l47.28-140.448h16.656l-47.28,140.448H224.928z" data-original="#0BA4E0" class="" data-old_color="#0BA4E0"/>
	<path style="fill:#2ECC71" d="M392.336,210.624L300.512,254.8v-17.248l74.016-34.096v-0.384l-74.016-34.096v-17.248l91.824,44.176   V210.624z" data-original="#0BA4E0" class="" data-old_color="#0BA4E0"/>
</g></g> </svg>
