<?xml version="1.0" standalone="no"?><svg xmlns="http://www.w3.org/2000/svg" viewBox="0 0 1440 320"><path fill="#2ecc71" fill-opacity="0.9" d="M0,192L26.7,170.7C53.3,149,107,107,160,112C213.3,117,267,171,320,202.7C373.3,235,427,245,480,218.7C533.3,192,587,128,640,122.7C693.3,117,747,171,800,208C853.3,245,907,267,960,277.3C1013.3,288,1067,288,1120,266.7C1173.3,245,1227,203,1280,202.7C1333.3,203,1387,245,1413,266.7L1440,288L1440,320L1413.3,320C1386.7,320,1333,320,1280,320C1226.7,320,1173,320,1120,320C1066.7,320,1013,320,960,320C906.7,320,853,320,800,320C746.7,320,693,320,640,320C586.7,320,533,320,480,320C426.7,320,373,320,320,320C266.7,320,213,320,160,320C106.7,320,53,320,27,320L0,320Z"></path></svg>