<?xml version="1.0" standalone="no"?><svg xmlns="http://www.w3.org/2000/svg" viewBox="0 0 1440 320"><path fill="#2ecc71" fill-opacity="0.9" d="M0,288L40,272C80,256,160,224,240,192C320,160,400,128,480,128C560,128,640,160,720,192C800,224,880,256,960,272C1040,288,1120,288,1200,250.7C1280,213,1360,139,1400,101.3L1440,64L1440,320L1400,320C1360,320,1280,320,1200,320C1120,320,1040,320,960,320C880,320,800,320,720,320C640,320,560,320,480,320C400,320,320,320,240,320C160,320,80,320,40,320L0,320Z"></path></svg>